PathFileType	4	(X/Y/Z)	C:/Users/beibeiliu/ov580/test_trc/User1\sequence.12_training_dense_left.trc
DataRate	CameraRate	NumFrames	NumMarkers	Units	OrigDataRate	OrigDataStartFrame	OrigNumFrames
120	120	8	19	mm	120	267	304
Frame#	Time	ThumbCMC			ThumbMCP			ThumbIP			ThumbTip			IndexMCP			IndexPIP			IndexTip			MiddleMCP			MiddlePIP			MiddleTip			RingMCP			RingPIP			RingTip			PinkyMCP			PinkyPIP			PinkyTip			BackHand1			BackHand2			BackHand3	
		X0	Y0	Z0	X1	Y1	Z1	X2	Y2	Z2	X3	Y3	Z3	X4	Y4	Z4	X5	Y5	Z5	X6	Y6	Z6	X7	Y7	Z7	X8	Y8	Z8	X9	Y9	Z9	X10	Y10	Z10	X11	Y11	Z11	X12	Y12	Z12	X13	Y13	Z13	X14	Y14	Z14	X15	Y15	Z15	X16	Y16	Z16	X17	Y17	Z17	X18	Y18	Z18	
266	2.21667	-158.577	58.6018	18.1737	-157.415	29.7413	6.89121	-150.162	8.24966	-6.91086	-149.961	-12.8056	-20.9508	-171.932	75.0519	-59.7505	-169.78	69.6059	-89.5201	-178.167	53.7366	-113.031	-199.687	92.703	-66.6559	-204.902	85.8747	-98.9301	-217.678	63.0863	-125.881	-219.563	94.1392	-59.2163	-231.496	86.4999	-88.4408	-244.013	62.0299	-108.574	-252.329	86.7241	-39.7821	-268.364	75.6164	-56.6888	-272.786	57.3286	-75.4477	-209.429	104.388	-8.71864	-210.445	111.456	26.2319	-175.357	95.7558	7.38694	
267	2.225	-158.303	59.9869	19.8689	-153.431	28.7724	8.82252	-152.008	9.06753	-4.5871	-147.582	-14.7874	-18.158	-171.279	73.0193	-59.524	-172.202	64.1175	-92.5446	-183.391	47.3995	-115.798	-200.215	89.23	-69.9469	-206.537	81.8872	-97.3284	-217.102	58.8541	-123.337	-225.216	91.6682	-56.7762	-234.323	79.6997	-89.614	-244.889	58.4567	-103.161	-251.306	83.6918	-37.4535	-266.965	71.7168	-54.1094	-274.418	52.9559	-71.6621	-215.029	104.462	-6.83607	-211.457	111.401	28.0411	-178.356	95.995	7.66382	
268	2.23333	-156.741	60.6233	21.4329	-156.039	30.3614	8.54546	-147.499	6.25726	-7.40877	-147.498	-13.0662	-15.372	-169.102	69.9421	-63.655	-171.896	64.8692	-88.8518	-182.496	45.5472	-115.873	-201.926	87.9381	-68.4754	-210.035	78.5633	-100.62	-218.267	59.3411	-120.44	-226.745	89.412	-58.0739	-233.937	77.7508	-87.2151	-244.088	56.4966	-100.483	-255.93	82.5759	-34.8032	-266.044	69.9169	-52.8875	-273.653	46.9717	-70.354	-213.929	103.649	-6.13863	-208.562	111.048	28.6678	-179.275	97.0134	3.78581	
269	2.24167	-154.716	59.7668	23.1439	-152.134	28.1454	8.95284	-148.302	8.35666	-5.24	-143.896	-15.9121	-18.1615	-170.943	70.8521	-60.279	-173.767	65.924	-90.6958	-179.677	48.3587	-114.126	-202.482	88.7364	-64.9926	-208.269	82.4202	-96.4272	-219.386	61.9835	-121.174	-222.074	89.4416	-61.1153	-233.946	78.4478	-90.6405	-247.808	55.7848	-105.419	-252.711	83.5353	-34.0884	-267.056	70.977	-52.2659	-275.544	53.7104	-68.9578	-212.915	101.327	-4.86636	-205.012	111.337	26.3204	-175.018	94.2457	8.0981	
270	2.25	-159.536	61.0802	20.4359	-152.282	27.5767	7.82195	-145.849	6.61539	-5.76235	-141.296	-13.7141	-14.1839	-170.494	73.1175	-62.4371	-175.202	68.3645	-91.5231	-180.149	54.2341	-115.111	-198.453	89.5335	-70.1611	-206.529	85.1895	-97.867	-218.221	63.8601	-126.193	-221.543	91.4229	-59.9843	-234.596	85.9747	-87.6353	-243.721	61.221	-109.517	-251.499	84.5005	-34.6374	-263.415	75.1024	-52.5791	-278.779	57.577	-74.0074	-212.364	101.992	-6.41211	-207.517	109.366	26.3491	-176.263	96.4903	6.00066	
271	2.25833	-156.622	59.5979	19.1127	-150.459	27.0082	7.81847	-143.867	6.622	-4.59226	-141.862	-12.5359	-15.661	-168.083	73.1122	-65.1255	-170.207	68.0132	-92.4491	-179.486	58.1517	-119.592	-198.912	91.404	-71.0123	-200.707	87.0233	-98.169	-212.259	73.1702	-125.235	-220.284	92.2777	-58.2415	-228.96	87.4088	-90.703	-242.543	71.6738	-110.204	-249.952	84.7225	-37.9865	-268.152	75.9836	-55.6405	-278.772	62.0964	-75.8325	-212.791	102.829	-9.5407	-205.127	110.433	25.5257	-176.665	93.7064	4.0968	
272	2.26667	-155.639	59.5364	21.9761	-153.363	31.0565	10.232	-142.467	6.06514	-7.17636	-137.838	-10.5569	-10.6496	-172.42	74.6563	-62.4524	-170.785	70.0048	-89.0407	-179.356	63.1023	-115.603	-198.441	91.9477	-70.2742	-204.981	87.9166	-101.429	-210.094	76.872	-126.214	-220.341	93.3767	-61.8522	-226.706	91.0384	-88.2129	-237.671	76.1494	-112.644	-250.489	86.8088	-35.5775	-266.934	79.4793	-53.7626	-279.36	71.4212	-71.7796	-212.278	103.907	-5.21142	-203.989	110.639	27.0726	-175.639	93.4782	6.56475	
273	2.275	-154.835	60.1472	19.4678	-152.336	31.6065	11.917	-144.137	9.21219	-5.28158	-136.518	-10.2277	-10.7593	-167.093	73.3858	-59.8266	-167.98	70.6492	-89.6746	-174.101	63.0486	-117.181	-196.018	91.1496	-67.6465	-203.049	91.184	-96.9533	-208.301	79.8745	-127.07	-221.844	95.8332	-61.6213	-225.41	92.2394	-88.2855	-237.745	78.1352	-114.998	-248.733	87.0798	-36.5516	-268.167	80.682	-53.8163	-276.46	76.3847	-74.5892	-210.468	104.224	-5.61495	-204.838	110.711	26.6558	-177.952	95.0391	5.52296	
